<?xml version="1.0" encoding="UTF-8"?>
<svg version="1.1" viewBox="0 0 1174 2048" width="160" height="279" xmlns="http://www.w3.org/2000/svg">
<path transform="translate(0)" d="m0 0h1174v2048h-1174z" fill="none"/>
<path transform="translate(750,352)" d="m0 0 12 2 20 7 22 11 18 6 5 1h23l11-1h37l32 5 24 6 28 10 20 9 23 12 18 12 16 12 12 11 7 6 7 8 11 12 12 17 12 21 9 20 8 24 5 24 1 10v54l-4 27-6 21-6 15-12 23-12 17-11 13-7 7-16 11-18 11-16 12-12 11-11 11-7 8-27 27-14 11-13 8-13 6-17 5-8 1h-14l-19-2-21-5-19-7-17-9-17-12-12-12-13-18-9-17-7-21-6-33-7-8-11-11-6-12v-8l8-6 6-2 14-2 4-24 6-21 8-21 12-25 7-9 8-7 16-6 26-5 20-2h17l25 3 23 5 20 6 19 7 21 10 18 11 14 11 12 11 10 11 14 19 7 12v9l-11 26-1 4 7-3 11-12 9-11 8-13 9-21 6-21 2-17-1-20-4-24-6-23-8-22-11-22-14-21-13-16-9-10-8-7-16-13-19-12-16-8-17-8-24-8-18-4-19-2-74-2-29-3-20-4-13-5-9-6-9-10-4-9-2-9 1-14z" fill="green"/>
<path transform="translate(632,16)" d="m0 0h18l19 3 18 6 16 8 15 9 14 12 10 10 13 17 10 18 8 19 5 17 5 30v26l-3 18-5 16-2 8 22 3 12 6 7 7 8 14 5 17 2 13-1 14-4 14-5 10-11 12-7 4-14-1-20-5-12-5-11-8-3 1-9 17-8 10-7 7-13 9-15 7-11 3-8 1h-27l-12-2-12-5-11-6-13-11-8-12h-4l-9 10-10 6-8 3-6 1h-10l-13-3-11-5-11-8-9-10-6-10-4-10-1-4v-14l4-10 7-7 10-6 20-6h2l-6-30-3-23-1-14v-34l2-24 4-25 6-22 7-19 8-15 10-13 12-12 14-10 16-8 18-6z" fill="green"/>
<path transform="translate(550,586)" d="m0 0 6 1 6 8 7 17 4 19 2 20 1 38-1 27-4 36-6 35-8 32-11 35-10 28-17 41-15 35-13 30-17 41-15 40-12 36-9 31-9 36-8 41-6 41-4 42-2 33v51l2 38 4 45 5 37 8 45 12 48 12 38 11 31 15 37 12 26 15 30 26 46 13 21 14 22 14 20 9 12 11 15 9 16 2 5v12l-4 9-8-1-16-9-13-11-10-11-14-21-8-13-28-50-13-24-12-22-20-40-16-36-11-27-12-34-11-36-12-48-8-40-7-48-3-32-2-31v-88l3-40 5-41 8-44 8-35 10-37 13-41 14-39 18-46 20-48 17-40 12-30 11-30 8-24 8-31 6-33 4-34v-57l-3-32-2-19v-16l11-7z" fill="green"/>
<path transform="translate(880,933)" d="m0 0h13v59l-4 30-6 23-7 19-12 25-10 18-14 21-9 12-11 14-13 15-12 13-11 12-16 16-8 7-12 11-26 26-8 7-40 40-7 8-7 7-7 8-12 14-11 13-12 16-12 17-11 17-12 21-12 24-11 28-8 26-6 27-4 24-2 31v16l2 25 5 29 7 29 11 33 14 33 5 15 2 9v14l-5 5-6 1-10-3-7-4-7-9-8-16-10-28-8-27-6-25-7-37-4-31-2-29v-15l3-37 7-37 9-31 10-26 12-25 14-24 16-24 14-19 9-10 9-11 16-17 8-8 7-8 18-18h2v-2l8-7 21-21 8-7 10-10 8-7 17-16 39-39 7-8 12-13 11-14 10-13 11-16 13-21 12-25 9-25 5-23 4-31 3-38 4-2z" fill="green"/>
<path transform="translate(761,1234)" d="m0 0h8l11 4 1 2-6 16-14 28-14 24-15 29-9 21-7 24-4 21-1 9v38l4 26 6 27 6 20 10 25 12 25 9 17 11 18 18 27 10 14 16 21 13 16 11 13 12 14 9 11 12 13 9 11 10 11 9 11 11 12 9 11 12 14 11 14 12 15 13 18 20 30 11 19 11 22 11 28 13 40 4 18v14l-3 12-5 11h-19l-7-15-3-13-4-27-6-23-9-25-12-26-12-22-13-21-12-17-14-19-13-16-18-22-12-14-10-11-9-11-13-14-9-11-11-12-9-11-12-14-9-11-11-14-14-18-13-18-11-17-9-15-12-21-13-27-9-24-6-19-8-35-4-28-1-15v-28l3-30 6-29 8-26 8-20 8-17 10-17 10-14 11-13 7-8z" fill="green"/>
<path transform="translate(652,130)" d="m0 0h12l16 2 12 5 9 7 8 9 7 14 4 15 3 23v32l-3 24-6 26-6 18-9 19-9 14-8 10-12 6-4 1h-12l-10-4-9-7-12-11-12-16-10-17-9-20-9-28-5-25-1-10v-9l3-20 5-17 8-14 9-10 10-7 11-5 16-4z" fill="white"/>
<path transform="translate(576,411)" d="m0 0h18l5 3 2 4-1 6-6 8-9 8-13 8-27 11-18 8-15 9-13 11-16 16-9 11-12 16-16 25-15 26-16 29-13 24-14 24-10 16-14 20-8 10-11 13-15 15-11 9-10 8-17 12-20 12-18 10-21 10-24 9-25 8-41 11-31 7h-10l-8-4-7-6-5-8-2-7 7-3 44-12 41-11 40-13 24-10 22-11 16-10 19-14 14-12 18-18 9-11 14-18 11-17 9-15 12-21 18-34 17-32 13-23 11-18 11-16 10-13 9-11 12-12 14-11 14-9 19-8 17-5 21-3z" fill="green"/>
<path transform="translate(632,16)" d="m0 0h18l19 3 18 6 16 8 15 9 14 12 10 10 13 17 10 18 3 6-1 2-1-3-2-1-1-5-4-2-3-3v-2l-5-2-3-2-5 2v5l-4 1 6 4 2 6v2l2 5-3 3h-2l-6-12-4-5-4-6-5-5-7-8-8-7-14-8-12-5-19-3h-21l-17 3-15 5-16 8-11 8-10 9-8 9-10 16-7 17-4 19 5-5 8-12 16-16 13-8 21-8 15-4 8-1h14l9 2v2h2l2-2 7 3 5 3 11 1 10 3 1 2h-2l3 5-1 6-3 2-18 1-6 1-8 1-4 3-9 1v1l-16 3-13 5-12 7-8 8-8 13-5 13-3 12-2 16v9l3 22 2 9v5l-1-3h-2l-1 17h2v11l-4 1v5l-5 3-4 5-13 5-9-1-7-4-1-4 3 1v2h3v2l9 1 3-2-7 1-4-1-8-16-3-1-1-5 1-1-5-19-4-17-3-37-1-17-1-3v-8l2-1 1-15v-9l-1-1 1-13 6-24 7-20 9-17 10-13 12-12 14-10 16-8 18-6z" fill="green"/>
<path transform="translate(410,1283)" d="m0 0h1v13l-2 33v51l2 38 4 45 5 37 8 45 12 48 12 38 11 31 15 37 12 26 15 30 26 46 13 21 14 22 14 20 9 12 11 15 9 16 2 5v12l-4 9-8-1-16-9-13-11-10-11-14-21-8-13-28-50-13-24-12-22-20-40-16-36-11-27-12-34-11-36-12-48-8-40-7-48-3-32-2-31v-75l1-11 3 3 2 8 2 2 2 6 4-2 13-26 1-7 3-10z" fill="green"/>
<path transform="translate(761,1234)" d="m0 0h8l11 4 1 2-6 16-14 28-14 24-15 29-9 21-7 24-4 21-1 9v38l4 26 6 27 6 20 10 25 12 25 9 17 11 18 18 27 10 14 4 5 3 9 9 17 2 5v3h-2v5l-3-4 1 11-3-1-5-14 1-3-8-22-2 1v-2l-9 1-2-5-5-3-2-3-5 1-6-4-3-3-2-1-3-6-9-8v-2l-6-2-8-13-12-21-13-27-9-24-6-19-8-35-4-28-1-15v-28l3-30 6-29 8-26 8-20 8-17 10-17 10-14 11-13 7-8z" fill="green"/>
<path transform="translate(816,671)" d="m0 0 5 3 16 12 23 13 23 12 29 12 24 7 30 5 33 4h9l4-2h9l1 1v9l-4 14-7 9-10 5-22 5-14 2-13 1h-29l-31-4-27-6-30-10-21-9-10-6-5-5-1-3v-8l6-28 7-24 4-8z" fill="white"/>
<path transform="translate(750,352)" d="m0 0 12 2 20 7 22 11 18 6 5 1h23l11-1h37l32 5 24 6 28 10 20 9 23 12 18 12 16 12 12 11 7 6 5 7-4-1-8-4-12-9-12-5-16-3-10-2-6-4-14-3 6 7 5 4 4 7-5-1-21-12-25-11-21-7-18-4-19-2-74-2-29-3-20-4-13-5-9-6-9-10-4-9-2-9 1-14z" fill="green"/>
<path transform="translate(550,586)" d="m0 0 6 1 6 8 7 17 4 19 2 20 1 38-1 27-4 36-6 35-8 32-11 35-10 28-17 41-13 31h-4l1-5h2l4-8-1-6 4-9 4-13 7-21 1-7h-7l-1 3-3 3h-3l-2 5-5 2v-2h2l2-7-3 3-2 3-1 5h-2l1 5-3 5-3 3-3 6-3 2v-5l3-4 1-9 3-3 1-5 2-4 3-16 11-29 10-30 8-31 6-33 4-34v-57l-3-32-2-19v-16l11-7z" fill="green"/>
<path transform="translate(845,629)" d="m0 0h38l24 3 31 8 26 9 18 8 16 9 16 11 12 11 4 6-1 6-9 3h-21l-38-8-28-8-23-8-27-11-19-9-22-13-7-7-1-3 4-5z" fill="white"/>
<path transform="translate(644,55)" d="m0 0h21l19 3 16 7 11 7 10 9 6 7 7 12 5 13 4 17-1 2-11-9v-2l-4-2-11-8-15-7-19-5-14-2-19-1-25 2-15 4-16 6-12 6-9 7-13 13-10 15-3 1 1-10 4-15 8-16 8-12 9-10 11-10 13-8 12-6 15-5z" fill="white"/>
<path transform="translate(806,790)" d="m0 0 6 1 21 9 28 10 18 5 20 4 16 2h29l18-1 4 2-1 4-8 8-10 7-12 6-13 4-11 2h-25l-19-4-15-5-19-10-10-8-7-7-7-11-4-10v-7z" fill="white"/>
<path transform="translate(534,1862)" d="m0 0 4 1 5 5 1-3h2l4 6 5 4 7 1-1-3 2-4 3 1 1 4 4-1 5 4v-4l4 2 10 13 9 15 4 9v12l-4 9-8-1-16-9-13-11-10-11-18-27z" fill="green"/>
<path transform="translate(1122,719)" d="m0 0 1 3-10 18-10 14-11 13-7 7-16 11-18 11-16 12-12 11-11 11-7 8-27 27-14 11-13 8-13 6-6 1 2-3 2 1 2-4 8-6 11-8 13-12 13-11 10-9 10-10 7-8 13-13 10-8 11-7 17-13 5-5 12-9 9-7 7-8 11-11 2-4 8-10 4-6z" fill="green"/>
<path transform="translate(756,268)" d="m0 0 15 1 18 3 4 4 2 11-2 8-6 10-5 3h-9l-3-4-1-7v-8l-4-5-11-6-2-2v-5z" fill="white"/>
<path transform="translate(551,308)" d="m0 0h12l8 7 2 4-1 5-10 4-17 4h-13l-4-2-2-8 5-6 8-5z" fill="white"/>
<path transform="translate(259,1492)" d="m0 0h17l5 3 2 4v9l-3 6-6 4h-12l-6-4-4-5-1-3v-9l5-4z" fill="green"/>
<path transform="translate(18,895)" d="m0 0 7 1 7 6 1 2v9l-6 7-3 2h-7l-8-7-2-4v-7l6-7z" fill="green"/>
<path transform="translate(113,903)" d="m0 0h8l6 5v13l-3 6-2 2h-8l-8-5-2-4v-9l6-7z" fill="green"/>
<path transform="translate(53,969)" d="m0 0h8l6 4 2 6-3 10-3 5-2 1h-6l-7-6-3-8 1-7 4-4z" fill="green"/>
<path transform="translate(29,1033)" d="m0 0 7 1 5 5 1 2v11l-6 7h-7l-6-3-3-9 1-9 5-4z" fill="green"/>
<path transform="translate(24,1169)" d="m0 0 9 1 5 3v10l-2 10-2 1h-10l-5-4-2-6v-11l4-3z" fill="green"/>
<path transform="translate(155,1029)" d="m0 0 8 2 3 4v11l-3 9h-10l-5-3-2-3v-13l4-5z" fill="green"/>
<path transform="translate(102,1092)" d="m0 0h7l5 3 1 1v13l-3 6-2 2h-7l-5-3-3-5-2-5 1-6 5-5z" fill="green"/>
<path transform="translate(29,1246)" d="m0 0 9 1 3 1v12l-2 10h-11l-6-3-1-9v-9z" fill="green"/>
<path transform="translate(141,1243)" d="m0 0h8l5 3 2 3-1 12-2 4-4 2-8-1-5-5-2-9 1-6z" fill="green"/>
<path transform="translate(164,1354)" d="m0 0h8l4 2 1 6-1 14-3 2h-10l-4-2-2-8v-10z" fill="#F5D175"/>
<path transform="translate(190,1181)" d="m0 0h8l4 2v18l-1 3-2 1h-8l-6-3-3-9 1-7 5-4z" fill="green"/>
<path transform="translate(80,1315)" d="m0 0h7l5 4v13l-2 6-7 2-8-4-2-4v-12l5-4z" fill="green"/>
<path transform="translate(160,1469)" d="m0 0h7l5 3 1 3v9l-2 8-1 1h-8l-6-4-2-3v-11l4-5z" fill="green"/>
<path transform="translate(270,1324)" d="m0 0h10l3 1v15l-2 6-8 1-8-5v-16z" fill="green"/>
<path transform="translate(28,1377)" d="m0 0 9 1 4 3-1 14-2 5h-10l-5-4-1-3v-12z" fill="green"/>
<path transform="translate(63,1482)" d="m0 0h10l4 2v13l-2 6h-12l-3-2-1-3v-11l2-4z" fill="green"/>
<path transform="translate(146,784)" d="m0 0h5l-3 2-44 12-16 4v2l-5 3h-2l-1-4 7-3 44-12z" fill="green"/>
<path transform="translate(521,141)" d="m0 0 3 2v13l-1 12h-4v-11z" fill="green"/>
<path transform="translate(513,928)" d="m0 0 2 1-1 6-8 19h-4l1-5h2l4-8-1-6 3-5z" fill="green"/>
<path transform="translate(274,1325)" d="m0 0h9v11l-2 3z" fill="green"/>
<path transform="translate(271,1493)" d="m0 0h7l4 4v6l-5-2-6-7z" fill="green"/>
<path transform="translate(16,907)" d="m0 0h5l3 4v2h-2l-1 3-5-1-1-1v-6z" fill="green"/>
<path transform="translate(94,798)" d="m0 0h5l-3 2-8 2v2l-5 3h-2l-1-4 7-3z" fill="green"/>
<path transform="translate(271,1342)" d="m0 0h6l4 2v2l-8 1-4-2v-2z" fill="green"/>
<path transform="translate(76,1484)" d="m0 0h1v13l-2 6h-6l4-1 1-8h1z" fill="green"/>
<path transform="translate(510,938)" d="m0 0h2l-3 9-3 7h-4l1-5h2z" fill="green"/>
<path transform="translate(553,588)" d="m0 0 5 1 3 4-1 4-7-8z" fill="green"/>
</svg>
